<?xml version="1.0" encoding="utf-8"?>
<!-- Generator: Adobe Illustrator 21.0.0, SVG Export Plug-In . SVG Version: 6.00 Build 0)  -->
<svg version="1.1" id="Слой_2" xmlns="http://www.w3.org/2000/svg" xmlns:xlink="http://www.w3.org/1999/xlink" x="0px" y="0px"
	 viewBox="0 0 656 379.1" style="enable-background:new 0 0 656 379.1;" xml:space="preserve">
<style type="text/css">
	.st0{fill:#FFFFFF;}
	.st1{fill:#754FD3;}
	.st2{opacity:0.42;}
	.st3{fill:#C279FB;}
	.st4{fill:#3F1B82;}
	.st5{opacity:0.25;}
	.st6{opacity:0.3;fill:#FFFFFF;}
	.st7{opacity:0.25;fill:#FFFFFF;}
</style>
<g>
	<rect x="321.3" y="69.7" class="st0" width="166.3" height="214.9"/>
	<g>
		<path class="st0" d="M495.4,299.4H313.6c-3.2,0-5.8-2.6-5.8-5.8V60.9c0-3.2,2.6-5.8,5.8-5.8h181.8c3.2,0,5.8,2.6,5.8,5.8v232.7
			C501.2,296.8,498.6,299.4,495.4,299.4z"/>
		<path class="st0" d="M495.4,301.4H313.6c-4.3,0-7.8-3.5-7.8-7.8V60.9c0-4.3,3.5-7.8,7.8-7.8h181.8c4.3,0,7.8,3.5,7.8,7.8v232.7
			C503.2,297.9,499.7,301.4,495.4,301.4z M313.6,57c-2.1,0-3.8,1.7-3.8,3.8v232.7c0,2.1,1.7,3.8,3.8,3.8h181.8
			c2.1,0,3.8-1.7,3.8-3.8V60.9c0-2.1-1.7-3.8-3.8-3.8H313.6z"/>
	</g>
	<g>
		<path class="st0" d="M253.8,344.8l-117.5-0.3c-3.2,0-5.8-2.6-5.8-5.8l0.5-165.8c0-3.2,2.6-5.8,5.8-5.8l117.5,0.3
			c3.2,0,5.8,2.6,5.8,5.8L259.6,339C259.6,342.2,257,344.8,253.8,344.8z"/>
		<path class="st0" d="M253.8,346.8C253.8,346.8,253.8,346.8,253.8,346.8l-117.5-0.3c-4.3,0-7.8-3.5-7.8-7.8l0.5-165.8
			c0-2.1,0.8-4,2.3-5.5s3.4-2.3,5.5-2.3l117.5,0.3c4.3,0,7.8,3.5,7.8,7.8L261.6,339c0,2.1-0.8,4-2.3,5.5
			C257.8,346,255.9,346.8,253.8,346.8z M136.7,169c-1,0-2,0.4-2.7,1.1c-0.7,0.7-1.1,1.7-1.1,2.7l-0.5,165.8c0,2.1,1.7,3.8,3.8,3.8
			l117.5,0.3c0,0,0,0,0,0c1,0,2-0.4,2.7-1.1c0.7-0.7,1.1-1.7,1.1-2.7l0.5-165.8c0-2.1-1.7-3.8-3.8-3.8L136.7,169
			C136.7,169,136.7,169,136.7,169z"/>
	</g>
	<path class="st1" d="M195.4,194.5c-21.1,0-38.3,17.2-38.3,38.3c0,21.1,17.2,38.3,38.3,38.3s38.3-17.2,38.3-38.3
		C233.8,211.7,216.6,194.5,195.4,194.5z M225.9,249.4l-12.2,0c1.1-4.4,1.7-9.3,1.9-14.5l14.5,0C229.8,240.1,228.3,245,225.9,249.4z
		 M160.8,234.9l14.5,0c0.1,5.2,0.8,10.1,1.9,14.5l-12.2,0C162.6,245.1,161.1,240.1,160.8,234.9z M165,216.3l12.2,0
		c-1.1,4.5-1.8,9.6-1.9,15l-14.5,0C161,225.9,162.5,220.8,165,216.3z M197,212.7l0-14.3c4.8,1,9,6.5,11.8,14.3L197,212.7z
		 M209.9,216.3c1.2,4.5,1.9,9.6,2.1,15l-14.9,0l0-15L209.9,216.3z M193.4,198.4l0,14.2l-11.3,0C184.7,205.1,188.8,199.7,193.4,198.4
		z M193.4,216.3l0,15l-14.5,0c0.1-5.4,0.9-10.5,2.1-15L193.4,216.3z M178.9,234.9l14.5,0l0,14.5l-12.4,0
		C179.8,245,179.1,240.1,178.9,234.9z M193.4,253l0,14.2c-4.6-1.2-8.7-6.6-11.3-14.2L193.4,253z M197.1,267.4l0-14.3l11.8,0
		C206.1,260.9,201.8,266.4,197.1,267.4z M197,249.4l0-14.5l14.9,0c-0.1,5.2-0.9,10.1-2,14.5L197,249.4z M215.6,231.2
		c-0.1-5.4-0.8-10.4-1.9-15l12.2,0c2.4,4.5,3.9,9.6,4.2,15L215.6,231.2z M223.6,212.6l-10.9,0c-1.7-5.4-4.1-9.8-7-13
		C213,202,219.3,206.6,223.6,212.6z M185.2,199.7c-2.9,3.2-5.3,7.6-7,13l-10.9,0C171.6,206.6,177.9,202,185.2,199.7z M167.3,253
		l10.9,0c1.7,5.4,4.1,9.8,7,13C177.9,263.7,171.6,259.1,167.3,253z M205.7,266c2.9-3.2,5.3-7.6,7-13l10.9,0
		C219.3,259.1,213,263.7,205.7,266z"/>
	<g>
		<path class="st1" d="M153.9,303.9c1.9-0.3,4.3-0.6,7.5-0.5c3.8,0,6.7,0.9,8.4,2.5c1.6,1.4,2.6,3.6,2.6,6.3c0,2.7-0.8,4.9-2.4,6.4
			c-2.1,2.2-5.4,3.3-9.2,3.3c-1.2,0-2.2-0.1-3.1-0.3l-0.1,12.1l-3.9,0L153.9,303.9z M157.7,318.5c0.8,0.2,1.9,0.3,3.2,0.3
			c4.7,0,7.6-2.2,7.6-6.4c0-4-2.8-5.9-7.1-5.9c-1.7,0-3,0.1-3.7,0.3L157.7,318.5z"/>
		<path class="st1" d="M178.7,324.3l-3.2,9.5l-4,0l10.4-30.1l4.7,0l10.1,30.2l-4.2,0l-3.2-9.5L178.7,324.3z M188.6,321.3l-2.9-8.7
			c-0.7-2-1.1-3.8-1.5-5.5l-0.1,0c-0.5,1.8-1,3.6-1.5,5.4l-3,8.7L188.6,321.3z"/>
		<path class="st1" d="M200.6,329.2c1.7,1.1,4.3,2,7,2c4,0,6.3-2.1,6.3-5.1c0-2.8-1.6-4.4-5.6-6c-4.9-1.8-7.9-4.3-7.9-8.6
			c0-4.7,3.9-8.2,9.8-8.1c3.1,0,5.3,0.7,6.7,1.5l-1.1,3.2c-1-0.5-3-1.4-5.7-1.5c-4.1,0-5.7,2.4-5.7,4.5c0,2.8,1.8,4.2,6,5.8
			c5.1,2,7.7,4.5,7.6,8.9c0,4.6-3.5,8.7-10.6,8.6c-2.9,0-6.1-0.9-7.7-2L200.6,329.2z"/>
		<path class="st1" d="M222.7,329.3c1.7,1.1,4.3,2,7,2c4,0,6.3-2.1,6.3-5.1c0-2.8-1.6-4.4-5.6-6c-4.9-1.8-7.9-4.3-7.9-8.6
			c0-4.7,3.9-8.2,9.8-8.1c3.1,0,5.3,0.7,6.7,1.5l-1.1,3.2c-1-0.5-3-1.4-5.7-1.5c-4.1,0-5.7,2.4-5.7,4.5c0,2.8,1.8,4.2,6,5.8
			c5.1,2,7.7,4.5,7.6,8.9c0,4.6-3.5,8.7-10.6,8.6c-2.9,0-6.1-0.9-7.7-2L222.7,329.3z"/>
	</g>
	<g class="st2">
		<rect x="325.8" y="94.6" class="st3" width="20.4" height="20.4"/>
		<rect x="350.7" y="94.6" class="st3" width="132.3" height="20.4"/>
	</g>
	<g class="st2">
		<rect x="325.8" y="119.5" class="st3" width="20.4" height="20.4"/>
		<rect x="350.7" y="119.5" class="st3" width="132.3" height="20.4"/>
	</g>
	<g class="st2">
		<rect x="325.8" y="144.4" class="st3" width="20.4" height="20.4"/>
		<rect x="350.7" y="144.4" class="st3" width="132.3" height="20.4"/>
	</g>
	<g class="st2">
		<rect x="325.8" y="169.3" class="st3" width="20.4" height="20.4"/>
		<rect x="350.7" y="169.3" class="st3" width="132.3" height="20.4"/>
	</g>
	<g>
		<polygon id="XMLID_141_" class="st4" points="437.5,297.2 427.3,305.3 437.6,329 441.7,325.7 		"/>
		<polygon id="XMLID_140_" class="st4" points="434.2,293.2 424.1,301.2 403.3,285.8 407.4,282.6 		"/>
		<g id="XMLID_135_">
			<g id="XMLID_137_">
				<path id="XMLID_139_" class="st4" d="M445.8,222.1l6.6-5.2c1.3-1.1,3.3-0.8,4.4,0.5l0,0c1.1,1.3,0.8,3.3-0.5,4.4l-3.8,3
					L445.8,222.1z"/>
				<path id="XMLID_138_" class="st4" d="M462.6,228.8l6.6-5.2c1.3-1.1,3.3-0.8,4.4,0.5l0,0c1.1,1.3,0.8,3.3-0.5,4.4l-3.8,3
					L462.6,228.8z"/>
			</g>
			<polygon id="XMLID_136_" class="st4" points="489.2,238.1 489.9,239 468.7,255.8 468,255 420.4,219.7 427.8,213.9 			"/>
		</g>
		<g id="XMLID_130_">
			<g id="XMLID_132_">
				<path id="XMLID_134_" class="st4" d="M509.3,302l6.6-5.2c1.3-1.1,1.6-3,0.5-4.4l0,0c-1.1-1.3-3-1.6-4.4-0.5l-3.8,3L509.3,302z"
					/>
				<path id="XMLID_133_" class="st4" d="M506.6,284.1l6.6-5.2c1.3-1.1,1.6-3,0.5-4.4l0,0c-1.1-1.3-3-1.6-4.4-0.5l-3.8,3
					L506.6,284.1z"/>
			</g>
			<polygon id="XMLID_131_" class="st4" points="503.5,256.1 502.8,255.2 481.6,272.1 482.3,272.9 505.9,327.2 513.2,321.4 			"/>
		</g>
		<path id="XMLID_129_" class="st4" d="M472.6,251.3c-31.4,24.9-53.6,49.2-49.7,54.1c3.9,4.9,32.6-11.3,64-36.2l33.1-26.3
			c13.1-10.4,20.5-22.8,16.6-27.8c-3.9-4.9-17.7-0.5-30.8,9.9L472.6,251.3z"/>
	</g>
	<g>
		<path class="st0" d="M201.8,115.6c-0.9,0-1.7-0.8-1.7-1.7v-6.5c0-0.9,0.8-1.7,1.7-1.7c0.9,0,1.7,0.8,1.7,1.7v6.5
			C203.5,114.8,202.7,115.6,201.8,115.6z"/>
		<path class="st0" d="M201.8,98.8c-0.9,0-1.7-0.8-1.7-1.7v-6.5c0-0.9,0.8-1.7,1.7-1.7c0.9,0,1.7,0.8,1.7,1.7v6.5
			C203.5,98,202.7,98.8,201.8,98.8z"/>
		<path class="st0" d="M196.6,104h-6.5c-0.9,0-1.7-0.8-1.7-1.7s0.8-1.7,1.7-1.7h6.5c0.9,0,1.7,0.8,1.7,1.7S197.6,104,196.6,104z"/>
		<path class="st0" d="M213.4,104H207c-0.9,0-1.7-0.8-1.7-1.7s0.8-1.7,1.7-1.7h6.5c0.9,0,1.7,0.8,1.7,1.7S214.4,104,213.4,104z"/>
	</g>
	<g>
		<path class="st0" d="M459.4,379.1c-0.9,0-1.7-0.8-1.7-1.7v-6.5c0-0.9,0.8-1.7,1.7-1.7s1.7,0.8,1.7,1.7v6.5
			C461,378.3,460.3,379.1,459.4,379.1z"/>
		<path class="st0" d="M459.4,362.3c-0.9,0-1.7-0.8-1.7-1.7v-6.5c0-0.9,0.8-1.7,1.7-1.7s1.7,0.8,1.7,1.7v6.5
			C461,361.5,460.3,362.3,459.4,362.3z"/>
		<path class="st0" d="M454.2,367.4h-6.5c-0.9,0-1.7-0.8-1.7-1.7c0-0.9,0.8-1.7,1.7-1.7h6.5c0.9,0,1.7,0.8,1.7,1.7
			C455.9,366.7,455.1,367.4,454.2,367.4z"/>
		<path class="st0" d="M471,367.4h-6.5c-0.9,0-1.7-0.8-1.7-1.7c0-0.9,0.8-1.7,1.7-1.7h6.5c0.9,0,1.7,0.8,1.7,1.7
			C472.7,366.7,471.9,367.4,471,367.4z"/>
	</g>
	<g>
		<path class="st0" d="M74.3,340.4c-0.5,0-1-0.2-1.3-0.5c-0.7-0.7-0.7-1.9,0-2.6l8.2-8.2c0.7-0.7,1.9-0.7,2.6,0
			c0.7,0.7,0.7,1.9,0,2.6l-8.2,8.2C75.2,340.2,74.8,340.4,74.3,340.4z"/>
		<path class="st0" d="M82.5,340.4c-0.5,0-1-0.2-1.3-0.5l-8.2-8.2c-0.7-0.7-0.7-1.9,0-2.6c0.7-0.7,1.9-0.7,2.6,0l8.2,8.2
			c0.7,0.7,0.7,1.9,0,2.6C83.4,340.2,82.9,340.4,82.5,340.4z"/>
	</g>
	<g class="st5">
		<path class="st0" d="M303.6,369.4h-17.7c-1.1,0-2-0.9-2-2s0.9-2,2-2h17.7c1.1,0,2,0.9,2,2S304.7,369.4,303.6,369.4z"/>
		<path class="st0" d="M276.8,369.4h-11c-1.1,0-2-0.9-2-2s0.9-2,2-2h11c1.1,0,2,0.9,2,2S277.9,369.4,276.8,369.4z"/>
	</g>
	<path class="st6" d="M65.9,240.7c-3.8,0-7-3.1-7-7s3.1-7,7-7c3.8,0,7,3.1,7,7S69.7,240.7,65.9,240.7z M65.9,228.9
		c-2.7,0-4.9,2.2-4.9,4.9c0,2.7,2.2,4.9,4.9,4.9c2.7,0,4.9-2.2,4.9-4.9C70.7,231.1,68.5,228.9,65.9,228.9z"/>
	<path class="st6" d="M427.3,13.9c-3.8,0-7-3.1-7-7s3.1-7,7-7c3.8,0,7,3.1,7,7S431.2,13.9,427.3,13.9z M427.3,2.1
		c-2.7,0-4.9,2.2-4.9,4.9c0,2.7,2.2,4.9,4.9,4.9c2.7,0,4.9-2.2,4.9-4.9C432.2,4.3,430,2.1,427.3,2.1z"/>
	<g class="st5">
		<path class="st0" d="M654,158.6h-17.7c-1.1,0-2-0.9-2-2s0.9-2,2-2H654c1.1,0,2,0.9,2,2S655.1,158.6,654,158.6z"/>
		<path class="st0" d="M627.2,158.6h-11c-1.1,0-2-0.9-2-2s0.9-2,2-2h11c1.1,0,2,0.9,2,2S628.3,158.6,627.2,158.6z"/>
	</g>
	<g>
		<path class="st0" d="M585.2,232.8c-0.5,0-1-0.2-1.3-0.5c-0.7-0.7-0.7-1.9,0-2.6l8.2-8.2c0.7-0.7,1.9-0.7,2.6,0s0.7,1.9,0,2.6
			l-8.2,8.2C586.2,232.6,585.7,232.8,585.2,232.8z"/>
		<path class="st0" d="M593.4,232.8c-0.5,0-1-0.2-1.3-0.5l-8.2-8.2c-0.7-0.7-0.7-1.9,0-2.6s1.9-0.7,2.6,0l8.2,8.2
			c0.7,0.7,0.7,1.9,0,2.6C594.4,232.6,593.9,232.8,593.4,232.8z"/>
	</g>
	<path class="st7" d="M50.2,161.6c-3.8,0-5.8-2-7.4-3.6c-1.4-1.4-2.4-2.4-4.6-2.4c-2.2,0-3.2,1-4.6,2.4c-1.6,1.6-3.6,3.6-7.4,3.6
		c-3.8,0-5.8-2-7.4-3.6c-1.4-1.4-2.4-2.4-4.6-2.4c-2.2,0-3.2,1-4.6,2.4c-1.6,1.6-3.6,3.6-7.4,3.6c-1.1,0-2-0.9-2-2s0.9-2,2-2
		c2.2,0,3.2-1,4.6-2.4c1.6-1.6,3.6-3.6,7.4-3.6c3.8,0,5.8,2,7.4,3.6c1.4,1.4,2.4,2.4,4.6,2.4c2.2,0,3.2-1,4.6-2.4
		c1.6-1.6,3.6-3.6,7.4-3.6c3.8,0,5.8,2,7.4,3.6c1.4,1.4,2.4,2.4,4.6,2.4s3.2-1,4.6-2.4c1.6-1.6,3.6-3.6,7.4-3.6c1.1,0,2,0.9,2,2
		s-0.9,2-2,2c-2.2,0-3.2,1-4.6,2.4C56,159.6,54,161.6,50.2,161.6z"/>
	<path class="st7" d="M220.5,10c-3.8,0-5.8-2-7.4-3.6C211.6,5,210.6,4,208.4,4s-3.2,1-4.6,2.4c-1.6,1.6-3.6,3.6-7.4,3.6
		c-3.8,0-5.8-2-7.4-3.6C187.5,5,186.5,4,184.4,4c-2.2,0-3.2,1-4.6,2.4c-1.6,1.6-3.6,3.6-7.4,3.6c-3.8,0-5.8-2-7.4-3.6
		C163.5,5,162.4,4,160.3,4c-1.1,0-2-0.9-2-2s0.9-2,2-2c3.8,0,5.8,2,7.4,3.6c1.4,1.4,2.4,2.4,4.6,2.4c2.2,0,3.2-1,4.6-2.4
		c1.6-1.6,3.6-3.6,7.4-3.6c3.8,0,5.8,2,7.4,3.6c1.4,1.4,2.4,2.4,4.6,2.4c2.2,0,3.2-1,4.6-2.4c1.6-1.6,3.6-3.6,7.4-3.6s5.8,2,7.4,3.6
		c1.4,1.4,2.4,2.4,4.6,2.4c1.1,0,2,0.9,2,2S221.6,10,220.5,10z"/>
	<path class="st7" d="M607.4,333.7c-3.8,0-5.8-2-7.4-3.6c-1.4-1.4-2.4-2.4-4.6-2.4c-2.2,0-3.2,1-4.6,2.4c-1.6,1.6-3.6,3.6-7.4,3.6
		s-5.8-2-7.4-3.6c-1.4-1.4-2.4-2.4-4.6-2.4c-2.2,0-3.2,1-4.6,2.4c-1.6,1.6-3.6,3.6-7.4,3.6c-1.1,0-2-0.9-2-2s0.9-2,2-2
		c2.2,0,3.2-1,4.6-2.4c1.6-1.6,3.6-3.6,7.4-3.6c3.8,0,5.8,2,7.4,3.6c1.4,1.4,2.4,2.4,4.6,2.4c2.2,0,3.2-1,4.6-2.4
		c1.6-1.6,3.6-3.6,7.4-3.6c3.8,0,5.8,2,7.4,3.6c1.4,1.4,2.4,2.4,4.6,2.4c2.2,0,3.2-1,4.6-2.4c1.6-1.6,3.6-3.6,7.4-3.6
		c1.1,0,2,0.9,2,2s-0.9,2-2,2c-2.2,0-3.2,1-4.6,2.4C613.2,331.7,611.2,333.7,607.4,333.7z"/>
	<g class="st5">
		<path class="st0" d="M347.5,22.9h-17.7c-1.1,0-2-0.9-2-2s0.9-2,2-2h17.7c1.1,0,2,0.9,2,2S348.6,22.9,347.5,22.9z"/>
		<path class="st0" d="M320.7,22.9h-11c-1.1,0-2-0.9-2-2s0.9-2,2-2h11c1.1,0,2,0.9,2,2S321.8,22.9,320.7,22.9z"/>
	</g>
	<g>
		<path class="st0" d="M68.3,86c-0.5,0-1-0.2-1.3-0.5c-0.7-0.7-0.7-1.9,0-2.6l8.2-8.2c0.7-0.7,1.9-0.7,2.6,0c0.7,0.7,0.7,1.9,0,2.6
			l-8.2,8.2C69.3,85.8,68.8,86,68.3,86z"/>
		<path class="st0" d="M76.5,86c-0.5,0-1-0.2-1.3-0.5L67,77.3c-0.7-0.7-0.7-1.9,0-2.6c0.7-0.7,1.9-0.7,2.6,0l8.2,8.2
			c0.7,0.7,0.7,1.9,0,2.6C77.5,85.8,77,86,76.5,86z"/>
	</g>
	<path class="st4" d="M335.1,111.9c-0.7,0-1.3-0.4-1.7-0.9l-4.5-7.2c-0.6-0.9-0.3-2.2,0.6-2.8c0.9-0.6,2.2-0.3,2.8,0.6l2.5,4.1
		l8.3-18.2c0.5-1,1.6-1.5,2.6-1c1,0.5,1.5,1.6,1,2.6l-9.8,21.6c-0.3,0.7-1,1.1-1.7,1.2C335.2,111.9,335.2,111.9,335.1,111.9z"/>
	<path class="st4" d="M335.1,138.9c-0.7,0-1.3-0.4-1.7-0.9l-4.5-7.2c-0.6-0.9-0.3-2.2,0.6-2.8c0.9-0.6,2.2-0.3,2.8,0.6l2.5,4.1
		l8.3-18.2c0.5-1,1.6-1.5,2.6-1c1,0.5,1.5,1.6,1,2.6l-9.8,21.6c-0.3,0.7-1,1.1-1.7,1.2C335.2,138.9,335.2,138.9,335.1,138.9z"/>
	<g>
		<path class="st0" d="M555.5,46.6c-0.9,0-1.7-0.8-1.7-1.7v-6.5c0-0.9,0.8-1.7,1.7-1.7s1.7,0.8,1.7,1.7V45
			C557.2,45.9,556.5,46.6,555.5,46.6z"/>
		<path class="st0" d="M555.5,29.9c-0.9,0-1.7-0.8-1.7-1.7v-6.5c0-0.9,0.8-1.7,1.7-1.7s1.7,0.8,1.7,1.7v6.5
			C557.2,29.1,556.5,29.9,555.5,29.9z"/>
		<path class="st0" d="M550.4,35h-6.5c-0.9,0-1.7-0.8-1.7-1.7c0-0.9,0.8-1.7,1.7-1.7h6.5c0.9,0,1.7,0.8,1.7,1.7
			C552.1,34.3,551.3,35,550.4,35z"/>
		<path class="st0" d="M567.2,35h-6.5c-0.9,0-1.7-0.8-1.7-1.7c0-0.9,0.8-1.7,1.7-1.7h6.5c0.9,0,1.7,0.8,1.7,1.7
			C568.8,34.3,568.1,35,567.2,35z"/>
	</g>
	<g class="st5">
		<path class="st0" d="M553.8,158.6h-17.7c-1.1,0-2-0.9-2-2s0.9-2,2-2h17.7c1.1,0,2,0.9,2,2S555,158.6,553.8,158.6z"/>
	</g>
</g>
</svg>
